<svg aria-hidden="true" style="position: absolute; width: 0; height: 0; overflow: hidden;" version="1.1" xmlns="http://www.w3.org/2000/svg" xmlns:xlink="http://www.w3.org/1999/xlink">
<defs>
<symbol id="icon-ac" viewBox="0 0 39 32" fill="#101828">
<path d="M18.067-0.947c-1.8 0.013-3.547 0.653-4.947 1.813-1.387 1.173-2.347 2.8-2.693 4.613l-0.147 0.72c-0.027 0.16-0.040 0.333-0.013 0.493s0.093 0.32 0.173 0.453c0.093 0.147 0.2 0.267 0.333 0.36s0.28 0.16 0.44 0.187c0.16 0.027 0.32 0.027 0.48 0 0.16-0.040 0.307-0.107 0.44-0.2s0.24-0.213 0.333-0.347c0.080-0.147 0.147-0.293 0.173-0.467l0.133-0.707c0.267-1.347 1.013-2.547 2.093-3.36 1.067-0.813 2.4-1.187 3.733-1.053 1.333 0.147 2.56 0.773 3.453 1.787 0.907 1.013 1.4 2.347 1.413 3.707 0 1.467-0.573 2.88-1.587 3.92s-2.387 1.627-3.813 1.627h-17.4c-0.32 0-0.627 0.133-0.853 0.36s-0.347 0.547-0.347 0.867c0 0.333 0.12 0.64 0.347 0.867 0.227 0.24 0.533 0.373 0.853 0.373h17.4c2.027-0.053 3.96-0.92 5.387-2.413s2.213-3.507 2.213-5.587c0-2.093-0.787-4.093-2.213-5.587-1.413-1.507-3.347-2.373-5.387-2.427zM31.867 10.133c-1.6 0-3.12 0.653-4.253 1.8-1.12 1.16-1.747 2.72-1.747 4.36 0 0.32 0.12 0.64 0.347 0.867s0.533 0.36 0.84 0.36c0.32 0 0.627-0.133 0.853-0.36s0.36-0.547 0.36-0.867c0-0.733 0.2-1.44 0.6-2.053s0.96-1.080 1.613-1.36c0.667-0.28 1.387-0.347 2.080-0.213 0.707 0.147 1.347 0.493 1.84 1.013 0.507 0.52 0.853 1.173 0.987 1.893 0.147 0.72 0.067 1.453-0.2 2.133-0.267 0.667-0.733 1.253-1.32 1.653-0.6 0.4-1.293 0.627-2 0.627h-31.2c-0.32 0-0.627 0.12-0.853 0.36-0.227 0.227-0.347 0.547-0.347 0.867 0 0.333 0.12 0.64 0.347 0.867 0.227 0.24 0.533 0.36 0.853 0.36h23.387c0.8 0 1.56 0.333 2.12 0.907 0.573 0.587 0.88 1.36 0.88 2.187 0 0.813-0.32 1.587-0.88 2.173-0.56 0.573-1.333 0.893-2.12 0.893-0.72 0-1.413-0.267-1.96-0.733-0.547-0.48-0.92-1.133-1.040-1.853l-0.013-0.080c-0.013-0.16-0.067-0.32-0.16-0.467-0.080-0.133-0.187-0.253-0.32-0.36-0.12-0.093-0.267-0.16-0.427-0.2s-0.32-0.053-0.48-0.027c-0.16 0.027-0.307 0.093-0.44 0.187-0.133 0.080-0.253 0.2-0.347 0.333s-0.16 0.293-0.187 0.453c-0.027 0.16-0.040 0.32 0 0.48l0.013 0.080c0.213 1.293 0.867 2.48 1.84 3.333 0.987 0.853 2.227 1.32 3.52 1.32 1.427 0 2.8-0.587 3.813-1.627s1.587-2.453 1.6-3.92c0-1.133-0.347-2.2-0.92-3.080h3.32c1.587 0 3.107-0.64 4.24-1.8 1.12-1.147 1.76-2.72 1.76-4.347 0-1.64-0.64-3.2-1.76-4.36-1.133-1.147-2.653-1.8-4.24-1.8z"></path>
<path d="M6 12.6h12.067c0.587 0 1.16-0.107 1.72-0.293 0.773-0.267 1.493-0.72 2.093-1.333 1.013-1.040 1.587-2.453 1.587-3.92-0.013-0.12-0.013-0.24-0.013-0.347-0.080-1.253-0.573-2.427-1.4-3.36-0.893-1.013-2.12-1.64-3.453-1.787-0.173-0.013-0.36-0.027-0.533-0.027-0.027 0-0.040 0-0.067 0-1.027 0.013-2.027 0.333-2.893 0.907-0.080 0.053-0.16 0.12-0.24 0.173-1.067 0.813-1.813 1.987-2.080 3.32 0 0.013 0 0.027-0.013 0.040l-0.133 0.707c-0.027 0.173-0.093 0.32-0.173 0.467-0.093 0.133-0.2 0.253-0.333 0.347s-0.28 0.16-0.44 0.2c-0.16 0.027-0.32 0.027-0.48 0s-0.307-0.093-0.44-0.187c-0.133-0.093-0.24-0.213-0.333-0.36-0.080-0.133-0.147-0.293-0.173-0.453s-0.013-0.333 0.013-0.493l0.053-0.267 0.093-0.453c0.32-1.64 1.133-3.133 2.32-4.28 0.12-0.107 0.253-0.227 0.373-0.333 1.4-1.16 3.147-1.8 4.947-1.813 2.040 0.053 3.973 0.92 5.387 2.427 0.987 1.040 1.68 2.32 2 3.707 0.147 0.613 0.213 1.24 0.213 1.88 0 0.333-0.013 0.667-0.053 0.987-0.16 1.267-0.6 2.48-1.307 3.52-0.253 0.387-0.533 0.747-0.853 1.080-0.227 0.24-0.467 0.453-0.72 0.667-0.16 0.12-0.32 0.253-0.48 0.36-0.133 0.093-0.267 0.173-0.4 0.267-0.8 0.48-1.68 0.813-2.6 0.987-0.387 0.080-0.787 0.12-1.187 0.133h-17.4c-0.32 0-0.627-0.133-0.853-0.373-0.227-0.227-0.347-0.533-0.347-0.867 0-0.147 0.027-0.293 0.067-0.44 0.067-0.16 0.16-0.307 0.28-0.427 0.227-0.227 0.533-0.36 0.853-0.36h5.333zM29.653 10.573c0.693-0.28 1.44-0.44 2.213-0.44 0.053 0 0.12 0 0.173 0 1.533 0.053 2.987 0.693 4.067 1.8 1.12 1.16 1.76 2.72 1.76 4.36 0 1.627-0.64 3.2-1.76 4.347-0.227 0.227-0.467 0.44-0.72 0.627-0.653 0.493-1.4 0.84-2.187 1.027-0.387 0.093-0.787 0.133-1.2 0.147-0.040 0-0.093 0-0.133 0h-3.32c0.293 0.453 0.52 0.947 0.68 1.467 0.147 0.507 0.24 1.053 0.24 1.613-0.013 0.387-0.040 0.76-0.12 1.133-0.147 0.693-0.413 1.347-0.8 1.933-0.187 0.307-0.427 0.587-0.68 0.853-1.013 1.040-2.387 1.627-3.813 1.627-0.52 0-1.027-0.080-1.52-0.227-0.733-0.213-1.413-0.587-2-1.093-0.213-0.2-0.427-0.413-0.613-0.64-0.587-0.693-1-1.547-1.187-2.453-0.013-0.080-0.027-0.16-0.040-0.24l-0.013-0.080c-0.040-0.16-0.027-0.32 0-0.48s0.093-0.32 0.187-0.453c0.093-0.133 0.213-0.253 0.347-0.333 0.133-0.093 0.28-0.16 0.44-0.187s0.32-0.013 0.48 0.027c0.107 0.027 0.2 0.053 0.293 0.107 0.040 0.027 0.093 0.067 0.133 0.093 0.133 0.107 0.24 0.227 0.32 0.36 0.093 0.147 0.147 0.307 0.16 0.467l0.013 0.080c0.040 0.213 0.093 0.427 0.173 0.64 0.187 0.467 0.48 0.88 0.867 1.213 0.547 0.467 1.24 0.733 1.96 0.733 0.24 0 0.467-0.027 0.707-0.080 0.52-0.133 1.013-0.413 1.413-0.813 0.293-0.307 0.52-0.667 0.667-1.053 0.147-0.36 0.213-0.733 0.213-1.12 0-0.133 0-0.267-0.027-0.387 0-0.067-0.013-0.12-0.027-0.187-0.040-0.267-0.133-0.533-0.24-0.773-0.147-0.307-0.347-0.587-0.587-0.84-0.56-0.573-1.32-0.907-2.12-0.907h-23.387c-0.32 0-0.627-0.12-0.853-0.36-0.12-0.12-0.213-0.267-0.28-0.427-0.040-0.133-0.067-0.293-0.067-0.44 0-0.32 0.12-0.64 0.347-0.867 0.227-0.24 0.533-0.36 0.853-0.36h31.2c0.053 0 0.107 0 0.16-0.013 0.12 0 0.24-0.013 0.36-0.027 0.52-0.080 1.027-0.28 1.48-0.587 0.147-0.107 0.28-0.213 0.413-0.333 0.093-0.093 0.2-0.2 0.28-0.307 0.267-0.293 0.48-0.64 0.627-1.013 0.267-0.68 0.347-1.413 0.2-2.133-0.133-0.72-0.48-1.373-0.987-1.893-0.493-0.52-1.133-0.867-1.84-1.013-0.413-0.080-0.853-0.093-1.267-0.027-0.053 0.013-0.107 0.027-0.147 0.027-0.227 0.053-0.453 0.12-0.667 0.213-0.267 0.12-0.52 0.267-0.747 0.44-0.347 0.253-0.627 0.56-0.867 0.92-0.307 0.467-0.493 0.987-0.573 1.533-0.027 0.173-0.027 0.347-0.027 0.52 0 0.133-0.027 0.267-0.067 0.387-0.067 0.187-0.16 0.347-0.293 0.48-0.227 0.227-0.533 0.36-0.853 0.36-0.307 0-0.613-0.133-0.84-0.36-0.213-0.213-0.333-0.493-0.347-0.787 0-0.027 0-0.053 0-0.080 0-0.12 0-0.24 0-0.36 0-0.053 0.013-0.107 0.013-0.16 0.067-0.867 0.32-1.707 0.733-2.453 0.267-0.507 0.6-0.973 1-1.387 0.32-0.32 0.68-0.613 1.053-0.853 0.32-0.2 0.64-0.373 0.987-0.507z"></path>
</symbol>
<symbol id="icon-beds" viewBox="0 0 32 32">
<path stroke-width="2.24" stroke-miterlimit="4" stroke-linecap="round" stroke-linejoin="round" d="M6 14.992v-6.496c0-0.672 0.256-1.296 0.72-1.776 0.48-0.464 1.104-0.72 1.776-0.72h14.992c0.672 0 1.296 0.256 1.776 0.72 0.464 0.48 0.72 1.104 0.736 1.776v6.496h-20zM2.992 26v-7.008c0-1.056 0.432-2.080 1.168-2.832 0.752-0.736 1.776-1.168 2.832-1.168h18c1.056 0 2.080 0.432 2.832 1.168 0.736 0.752 1.168 1.776 1.168 2.832v7.008"></path>
<path stroke-width="2.24" stroke-miterlimit="4" stroke-linecap="butt" stroke-linejoin="round" d="M2.992 26v-0.512c0-0.4 0.16-0.768 0.448-1.056 0.272-0.288 0.656-0.432 1.056-0.432h22.992c0.4 0 0.784 0.144 1.056 0.432 0.288 0.288 0.448 0.656 0.448 1.056v0.512M6.992 14.992v-0.992c0-0.544 0.208-1.040 0.592-1.424 0.368-0.368 0.88-0.576 1.408-0.576h5.008c0.528 0 1.024 0.208 1.408 0.576 0.368 0.384 0.576 0.88 0.592 1.424v0.992M16 14c0-0.544 0.208-1.040 0.576-1.424 0.384-0.368 0.88-0.576 1.424-0.576h4.992c0.528 0 1.040 0.208 1.408 0.576 0.384 0.384 0.592 0.88 0.592 1.424v0.992"></path>
</symbol>
<symbol id="icon-calendar" viewBox="0 0 32 32">
<path stroke-width="2.4" stroke-miterlimit="4" stroke-linecap="butt" stroke-linejoin="round" d="M25.328 5.328c1.472 0 2.672 1.184 2.672 2.672v18.656c0 1.472-1.2 2.672-2.672 2.672h-18.672c-1.472 0-2.656-1.2-2.656-2.672v-18.656c0-1.488 1.184-2.672 2.656-2.672h18.672z"></path>
<path stroke-width="2.4" stroke-miterlimit="4" stroke-linecap="round" stroke-linejoin="round" d="M21.328 2.656v5.328"></path>
<path stroke-width="2.4" stroke-miterlimit="4" stroke-linecap="round" stroke-linejoin="round" d="M10.656 2.656v5.328"></path>
<path stroke-width="2.4" stroke-miterlimit="4" stroke-linecap="round" stroke-linejoin="round" d="M4 13.328h24"></path>
</symbol>
<symbol id="icon-camper" viewBox="0 0 32 32">
<path d="M1.824 6.056h8.68c0.080 0 0.144-0.032 0.2-0.080l0.832-0.816c0.24-0.232 0.568-0.36 0.912-0.36h13.168c0.616 0 1.184 0.296 1.52 0.792l1.584 2.312c0.224 0.328 0.24 0.744 0.056 1.096-0.192 0.344-0.56 0.56-0.968 0.56h-6.784v0.672h3.472c0.92 0 1.752 0.528 2.112 1.36l2.040 4.656 1.784 0.696c0.952 0.368 1.568 1.256 1.568 2.256v4.312c0 0.64-0.544 1.168-1.2 1.168h-2.072c-0.24 1.424-1.52 2.52-3.048 2.52s-2.8-1.096-3.048-2.52h-11.336c-0.248 1.424-1.52 2.52-3.048 2.52s-2.8-1.096-3.048-2.52h-4.144c-0.584 0-1.056-0.472-1.056-1.040v-15.8c0-0.984 0.816-1.784 1.824-1.784zM25.68 26.208c1.144 0 2.080-0.904 2.080-2.024s-0.936-2.024-2.080-2.024c-1.144 0-2.080 0.904-2.080 2.024s0.936 2.024 2.080 2.024zM21.024 23.696h1.608c0.008-0.032 0.016-0.056 0.016-0.080 0.008-0.016 0.008-0.032 0.008-0.048 0.008-0.040 0.024-0.072 0.032-0.112 0-0.008 0-0.016 0-0.024 0.016-0.048 0.032-0.096 0.040-0.136 0.008-0.016 0.016-0.024 0.016-0.040 0.008-0.032 0.024-0.064 0.032-0.096 0.008-0.016 0.016-0.032 0.024-0.048 0.008-0.024 0.016-0.056 0.032-0.080 0.008-0.016 0.016-0.040 0.024-0.056 0.008-0.024 0.016-0.048 0.032-0.072 0.008-0.016 0.016-0.040 0.024-0.056 0.016-0.024 0.024-0.048 0.040-0.072 0.008-0.016 0.016-0.032 0.032-0.048 0.008-0.024 0.024-0.048 0.040-0.072 0.008-0.016 0.016-0.032 0.032-0.048 0.016-0.024 0.024-0.048 0.040-0.072 0.016-0.016 0.024-0.032 0.032-0.048 0.016-0.024 0.040-0.048 0.056-0.072 0.008-0.016 0.016-0.024 0.032-0.040 0.024-0.032 0.048-0.064 0.072-0.096 0.008 0 0.008-0.008 0.016-0.008 0.024-0.040 0.056-0.072 0.088-0.104 0.008-0.016 0.024-0.024 0.032-0.032 0.024-0.024 0.040-0.048 0.064-0.072 0.016-0.008 0.032-0.024 0.040-0.040 0.024-0.016 0.040-0.032 0.064-0.056 0.016-0.008 0.032-0.024 0.040-0.040 0.024-0.016 0.048-0.032 0.064-0.048l0.048-0.040c0.024-0.016 0.040-0.032 0.064-0.048 0.016-0.016 0.032-0.024 0.048-0.032 0.024-0.016 0.048-0.032 0.072-0.048 0.016-0.016 0.032-0.024 0.048-0.032 0.024-0.016 0.048-0.032 0.072-0.048 0.016-0.008 0.032-0.024 0.048-0.032 0.024-0.016 0.056-0.032 0.080-0.040 0.016-0.008 0.024-0.016 0.040-0.024 0.040-0.024 0.080-0.040 0.12-0.064 0 0 0.008 0 0.008 0 0.040-0.024 0.088-0.040 0.128-0.056 0.016-0.008 0.032-0.016 0.048-0.024 0.024-0.008 0.056-0.016 0.088-0.032 0.016-0.008 0.032-0.008 0.056-0.016s0.048-0.024 0.080-0.032c0.016 0 0.040-0.008 0.056-0.016 0.032-0.008 0.056-0.016 0.080-0.024 0.024 0 0.040-0.008 0.064-0.008 0.024-0.008 0.056-0.016 0.080-0.024 0.024 0 0.040-0.008 0.064-0.008 0.024-0.008 0.056-0.016 0.088-0.016 0.016-0.008 0.040-0.008 0.056-0.008 0.032-0.008 0.064-0.008 0.088-0.016 0.024 0 0.040 0 0.064-0.008 0.032 0 0.064 0 0.096-0.008 0.016 0 0.032 0 0.048 0 0.048 0 0.104 0 0.152 0s0.104 0 0.152 0c0.016 0 0.032 0 0.048 0 0.032 0.008 0.072 0.008 0.104 0.008 0.016 0.008 0.040 0.008 0.056 0.008 0.032 0.008 0.056 0.008 0.088 0.016 0.024 0 0.040 0 0.064 0.008 0.024 0 0.056 0.008 0.080 0.016 0.024 0 0.040 0.008 0.064 0.008 0.024 0.008 0.056 0.016 0.080 0.024 0.024 0 0.040 0.008 0.064 0.008 0.024 0.008 0.056 0.016 0.080 0.024 0.016 0.008 0.040 0.016 0.056 0.016 0.032 0.008 0.056 0.024 0.088 0.032 0.016 0.008 0.032 0.008 0.048 0.016 0.032 0.016 0.064 0.024 0.096 0.032 0.008 0.008 0.024 0.016 0.040 0.024 0.040 0.016 0.088 0.032 0.128 0.056 0.008 0 0.008 0 0.008 0 0.040 0.024 0.080 0.040 0.12 0.064 0.016 0.008 0.024 0.016 0.040 0.024 0.032 0.008 0.056 0.024 0.080 0.040 0.016 0.008 0.032 0.024 0.048 0.032 0.024 0.016 0.048 0.032 0.072 0.048 0.016 0.008 0.040 0.016 0.056 0.032s0.040 0.032 0.064 0.048c0.016 0.008 0.032 0.016 0.048 0.032 0.024 0.016 0.040 0.032 0.064 0.048l0.048 0.040c0.024 0.016 0.040 0.032 0.064 0.048 0.016 0.016 0.024 0.032 0.040 0.040 0.024 0.024 0.040 0.040 0.064 0.056 0.016 0.016 0.024 0.032 0.040 0.040 0.024 0.024 0.048 0.048 0.064 0.072 0.016 0.008 0.024 0.016 0.032 0.032 0.032 0.032 0.064 0.064 0.096 0.104 0 0 0.008 0.008 0.008 0.008 0.024 0.032 0.048 0.064 0.080 0.096 0.008 0.016 0.016 0.024 0.024 0.040 0.016 0.024 0.040 0.048 0.056 0.072 0.008 0.016 0.016 0.032 0.032 0.048 0.016 0.024 0.032 0.048 0.048 0.072 0.008 0.016 0.016 0.032 0.024 0.048 0.016 0.024 0.032 0.048 0.048 0.072 0.008 0.016 0.016 0.032 0.024 0.048 0.016 0.024 0.024 0.048 0.040 0.072 0.008 0.016 0.016 0.040 0.024 0.056 0.016 0.024 0.024 0.048 0.040 0.072 0.008 0.016 0.016 0.040 0.016 0.056 0.016 0.024 0.024 0.056 0.040 0.080 0 0.016 0.008 0.032 0.016 0.048 0.008 0.032 0.024 0.064 0.032 0.096 0.008 0.016 0.008 0.024 0.016 0.040 0.016 0.040 0.024 0.088 0.040 0.136 0 0.008 0 0.016 0 0.024 0.016 0.040 0.024 0.072 0.032 0.112 0 0.016 0.008 0.032 0.008 0.048 0.008 0.024 0.008 0.048 0.016 0.080h2.072c0.104 0 0.184-0.088 0.184-0.184v-2.064h-0.784v-0.984h0.784v-1.264c0-0.6-0.36-1.128-0.928-1.344l-1.888-0.736h-7.144v6.576zM21.024 16.136h6.472l-1.816-4.16c-0.2-0.464-0.664-0.76-1.184-0.76h-3.472v4.92zM8.248 26.208c1.144 0 2.080-0.904 2.080-2.024s-0.936-2.024-2.080-2.024c-0.032 0-0.072 0-0.104 0-0.96 0.048-1.744 0.728-1.928 1.616-0.008 0.032-0.016 0.064-0.024 0.104-0.008 0.064-0.016 0.128-0.016 0.2-0.008 0.032-0.008 0.072-0.008 0.104 0 1.12 0.936 2.024 2.080 2.024zM1.008 20.464h0.784v0.984h-0.784v2.192c0 0.032 0.024 0.056 0.048 0.056h4.144c0.008-0.032 0.008-0.056 0.016-0.080 0-0.016 0.008-0.032 0.008-0.048 0.008-0.040 0.016-0.072 0.032-0.112 0-0.008 0-0.016 0-0.024 0.016-0.048 0.032-0.088 0.040-0.136 0.008-0.016 0.016-0.032 0.016-0.040 0.008-0.032 0.024-0.064 0.032-0.096 0.008-0.016 0.016-0.032 0.024-0.048 0.008-0.024 0.016-0.056 0.032-0.080 0.008-0.016 0.016-0.040 0.024-0.056 0.008-0.024 0.016-0.048 0.032-0.072 0.008-0.016 0.016-0.040 0.024-0.056 0.016-0.024 0.024-0.048 0.040-0.072 0.008-0.016 0.016-0.032 0.032-0.048 0.008-0.024 0.024-0.048 0.040-0.072 0.008-0.016 0.016-0.032 0.032-0.048 0.008-0.024 0.024-0.048 0.040-0.072 0.016-0.016 0.024-0.032 0.032-0.048 0.016-0.024 0.040-0.048 0.056-0.072 0.008-0.016 0.016-0.024 0.032-0.040 0.024-0.032 0.048-0.064 0.072-0.088 0-0.008 0.008-0.016 0.008-0.016 0.032-0.040 0.064-0.072 0.096-0.104 0.008-0.016 0.024-0.024 0.032-0.032 0.024-0.024 0.040-0.048 0.064-0.072 0.016-0.008 0.024-0.024 0.040-0.040 0.024-0.016 0.040-0.032 0.064-0.056 0.016-0.008 0.032-0.024 0.040-0.040 0.024-0.016 0.048-0.032 0.064-0.048s0.032-0.024 0.048-0.040c0.024-0.016 0.040-0.032 0.064-0.048 0.016-0.016 0.032-0.024 0.048-0.032 0.024-0.016 0.048-0.032 0.072-0.048 0.016-0.016 0.032-0.024 0.048-0.032 0.024-0.016 0.048-0.032 0.072-0.048 0.016-0.008 0.032-0.024 0.048-0.032 0.024-0.016 0.048-0.032 0.080-0.040 0.016-0.008 0.024-0.016 0.040-0.024 0.040-0.024 0.080-0.040 0.12-0.064 0 0 0.008 0 0.008 0 0.040-0.024 0.088-0.040 0.128-0.056 0.016-0.008 0.032-0.016 0.048-0.024 0.024-0.008 0.056-0.016 0.088-0.032 0.016-0.008 0.032-0.008 0.056-0.016s0.048-0.024 0.080-0.032c0.016 0 0.040-0.008 0.056-0.016 0.032-0.008 0.056-0.016 0.080-0.024 0.024 0 0.040-0.008 0.064-0.008 0.024-0.008 0.056-0.016 0.080-0.024 0.024 0 0.040-0.008 0.064-0.008 0.024-0.008 0.056-0.016 0.080-0.016 0.024-0.008 0.040-0.008 0.064-0.008 0.032-0.008 0.056-0.008 0.088-0.016 0.024 0 0.040 0 0.056-0.008 0.040 0 0.072 0 0.104-0.008 0.016 0 0.032 0 0.048 0 0.048 0 0.104 0 0.152 0s0.104 0 0.152 0c0.016 0 0.032 0 0.048 0 0.032 0.008 0.064 0.008 0.104 0.008 0.016 0.008 0.032 0.008 0.056 0.008 0.032 0.008 0.056 0.008 0.088 0.016 0.024 0 0.040 0 0.064 0.008 0.024 0 0.056 0.008 0.080 0.016 0.024 0 0.040 0.008 0.064 0.008 0.024 0.008 0.056 0.016 0.080 0.024 0.024 0 0.040 0.008 0.064 0.008 0.024 0.008 0.056 0.016 0.080 0.024 0.016 0.008 0.040 0.016 0.056 0.016 0.032 0.008 0.056 0.024 0.088 0.032 0.016 0.008 0.032 0.008 0.048 0.016 0.032 0.016 0.064 0.024 0.096 0.032 0.008 0.008 0.024 0.016 0.040 0.024 0.040 0.016 0.088 0.032 0.128 0.056 0.008 0 0.008 0 0.008 0 0.040 0.024 0.080 0.040 0.12 0.064 0.016 0.008 0.024 0.016 0.040 0.024 0.032 0.008 0.056 0.024 0.080 0.040 0.016 0.008 0.032 0.024 0.048 0.032 0.024 0.016 0.048 0.032 0.072 0.048 0.016 0.008 0.032 0.016 0.056 0.032 0.016 0.016 0.040 0.032 0.064 0.048 0.016 0.008 0.032 0.016 0.048 0.032 0.024 0.016 0.040 0.032 0.064 0.048 0.016 0.016 0.032 0.024 0.048 0.040s0.040 0.032 0.064 0.048c0.008 0.016 0.024 0.032 0.040 0.040 0.024 0.024 0.040 0.040 0.064 0.056 0.016 0.016 0.024 0.032 0.040 0.040 0.024 0.024 0.048 0.048 0.064 0.072 0.016 0.008 0.024 0.016 0.032 0.032 0.032 0.032 0.064 0.064 0.096 0.104 0 0 0.008 0.008 0.008 0.008 0.024 0.032 0.048 0.064 0.072 0.096 0.016 0.016 0.024 0.024 0.032 0.040 0.016 0.024 0.040 0.048 0.056 0.072 0.008 0.016 0.016 0.032 0.032 0.048 0.016 0.024 0.032 0.048 0.040 0.072 0.016 0.016 0.024 0.032 0.032 0.048 0.016 0.024 0.032 0.048 0.040 0.072 0.016 0.016 0.024 0.032 0.032 0.048 0.016 0.024 0.024 0.048 0.040 0.072 0.008 0.016 0.016 0.040 0.024 0.056 0.016 0.024 0.024 0.048 0.032 0.072 0.008 0.016 0.016 0.040 0.024 0.056 0.016 0.024 0.024 0.056 0.040 0.080 0 0.016 0.008 0.032 0.016 0.048 0.008 0.032 0.024 0.064 0.032 0.096 0.008 0.016 0.008 0.024 0.016 0.040 0.008 0.040 0.024 0.088 0.040 0.136 0 0.008 0 0.016 0 0.024 0.016 0.032 0.024 0.072 0.032 0.112 0 0.016 0.008 0.032 0.008 0.048 0.008 0.024 0.008 0.048 0.016 0.080h8.712v-14.632c0-0.272 0.232-0.488 0.504-0.488h7.296c0.016 0 0.048 0 0.072-0.048 0.024-0.040 0.008-0.072 0-0.080l-1.576-2.312c-0.16-0.224-0.408-0.352-0.688-0.352h-13.168c-0.080 0-0.144 0.024-0.2 0.072l-0.832 0.816c-0.24 0.24-0.568 0.368-0.912 0.368h-8.68c-0.456 0-0.816 0.36-0.816 0.8v12.624z"></path>
<path d="M14.080 9.832h3.184c0.648 0 1.176 0.512 1.176 1.144v10.528c0 0.272-0.232 0.496-0.504 0.496h-4.52c-0.28 0-0.504-0.224-0.504-0.496v-10.528c0-0.632 0.52-1.144 1.168-1.144zM13.92 21.016h3.504v-5.792h-3.504v5.792zM13.92 14.24h3.504v-3.264c0-0.088-0.072-0.16-0.16-0.16h-3.184c-0.088 0-0.16 0.072-0.16 0.16v3.264zM3.872 9.832h6.168c0.712 0 1.296 0.568 1.296 1.264v2.872c0 0.696-0.584 1.264-1.296 1.264h-6.168c-0.712 0-1.296-0.568-1.296-1.264v-2.872c0-0.696 0.584-1.264 1.296-1.264zM3.584 13.968c0 0.152 0.128 0.272 0.288 0.272h6.168c0.16 0 0.288-0.12 0.288-0.272v-2.872c0-0.152-0.128-0.28-0.288-0.28h-6.168c-0.16 0-0.288 0.128-0.288 0.28v2.872z"></path>
</symbol>
<symbol id="icon-camper2" viewBox="0 0 32 32">
<path d="M1.824 6.056h8.68c0.080 0 0.144-0.032 0.2-0.080l0.832-0.816c0.24-0.232 0.568-0.36 0.912-0.36h13.168c0.616 0 1.184 0.296 1.52 0.792l1.584 2.312c0.224 0.328 0.24 0.744 0.056 1.096-0.192 0.344-0.56 0.56-0.968 0.56h-6.784v0.672h3.472c0.92 0 1.752 0.528 2.112 1.36l2.040 4.656 1.784 0.696c0.952 0.368 1.568 1.256 1.568 2.256v4.312c0 0.64-0.544 1.168-1.2 1.168h-2.072c-0.24 1.424-1.52 2.52-3.048 2.52s-2.8-1.096-3.048-2.52h-11.336c-0.248 1.424-1.52 2.52-3.048 2.52s-2.8-1.096-3.048-2.52h-4.144c-0.584 0-1.056-0.472-1.056-1.040v-15.8c0-0.984 0.816-1.784 1.824-1.784zM25.68 26.208c1.144 0 2.080-0.904 2.080-2.024s-0.936-2.024-2.080-2.024c-1.144 0-2.080 0.904-2.080 2.024s0.936 2.024 2.080 2.024zM21.024 23.696h1.608c0.008-0.032 0.016-0.056 0.016-0.080 0.008-0.016 0.008-0.032 0.008-0.048 0.008-0.040 0.024-0.072 0.032-0.112 0-0.008 0-0.016 0-0.024 0.016-0.048 0.032-0.096 0.040-0.136 0.008-0.016 0.016-0.024 0.016-0.040 0.008-0.032 0.024-0.064 0.032-0.096 0.008-0.016 0.016-0.032 0.024-0.048 0.008-0.024 0.016-0.056 0.032-0.080 0.008-0.016 0.016-0.040 0.024-0.056 0.008-0.024 0.016-0.048 0.032-0.072 0.008-0.016 0.016-0.040 0.024-0.056 0.016-0.024 0.024-0.048 0.040-0.072 0.008-0.016 0.016-0.032 0.032-0.048 0.008-0.024 0.024-0.048 0.040-0.072 0.008-0.016 0.016-0.032 0.032-0.048 0.016-0.024 0.024-0.048 0.040-0.072 0.016-0.016 0.024-0.032 0.032-0.048 0.016-0.024 0.040-0.048 0.056-0.072 0.008-0.016 0.016-0.024 0.032-0.040 0.024-0.032 0.048-0.064 0.072-0.096 0.008 0 0.008-0.008 0.016-0.008 0.024-0.040 0.056-0.072 0.088-0.104 0.008-0.016 0.024-0.024 0.032-0.032 0.024-0.024 0.040-0.048 0.064-0.072 0.016-0.008 0.032-0.024 0.040-0.040 0.024-0.016 0.040-0.032 0.064-0.056 0.016-0.008 0.032-0.024 0.040-0.040 0.024-0.016 0.048-0.032 0.064-0.048l0.048-0.040c0.024-0.016 0.040-0.032 0.064-0.048 0.016-0.016 0.032-0.024 0.048-0.032 0.024-0.016 0.048-0.032 0.072-0.048 0.016-0.016 0.032-0.024 0.048-0.032 0.024-0.016 0.048-0.032 0.072-0.048 0.016-0.008 0.032-0.024 0.048-0.032 0.024-0.016 0.056-0.032 0.080-0.040 0.016-0.008 0.024-0.016 0.040-0.024 0.040-0.024 0.080-0.040 0.12-0.064 0 0 0.008 0 0.008 0 0.040-0.024 0.088-0.040 0.128-0.056 0.016-0.008 0.032-0.016 0.048-0.024 0.024-0.008 0.056-0.016 0.088-0.032 0.016-0.008 0.032-0.008 0.056-0.016s0.048-0.024 0.080-0.032c0.016 0 0.040-0.008 0.056-0.016 0.032-0.008 0.056-0.016 0.080-0.024 0.024 0 0.040-0.008 0.064-0.008 0.024-0.008 0.056-0.016 0.080-0.024 0.024 0 0.040-0.008 0.064-0.008 0.024-0.008 0.056-0.016 0.088-0.016 0.016-0.008 0.040-0.008 0.056-0.008 0.032-0.008 0.064-0.008 0.088-0.016 0.024 0 0.040 0 0.064-0.008 0.032 0 0.064 0 0.096-0.008 0.016 0 0.032 0 0.048 0 0.048 0 0.104 0 0.152 0s0.104 0 0.152 0c0.016 0 0.032 0 0.048 0 0.032 0.008 0.072 0.008 0.104 0.008 0.016 0.008 0.040 0.008 0.056 0.008 0.032 0.008 0.056 0.008 0.088 0.016 0.024 0 0.040 0 0.064 0.008 0.024 0 0.056 0.008 0.080 0.016 0.024 0 0.040 0.008 0.064 0.008 0.024 0.008 0.056 0.016 0.080 0.024 0.024 0 0.040 0.008 0.064 0.008 0.024 0.008 0.056 0.016 0.080 0.024 0.016 0.008 0.040 0.016 0.056 0.016 0.032 0.008 0.056 0.024 0.088 0.032 0.016 0.008 0.032 0.008 0.048 0.016 0.032 0.016 0.064 0.024 0.096 0.032 0.008 0.008 0.024 0.016 0.040 0.024 0.040 0.016 0.088 0.032 0.128 0.056 0.008 0 0.008 0 0.008 0 0.040 0.024 0.080 0.040 0.12 0.064 0.016 0.008 0.024 0.016 0.040 0.024 0.032 0.008 0.056 0.024 0.080 0.040 0.016 0.008 0.032 0.024 0.048 0.032 0.024 0.016 0.048 0.032 0.072 0.048 0.016 0.008 0.040 0.016 0.056 0.032s0.040 0.032 0.064 0.048c0.016 0.008 0.032 0.016 0.048 0.032 0.024 0.016 0.040 0.032 0.064 0.048l0.048 0.040c0.024 0.016 0.040 0.032 0.064 0.048 0.016 0.016 0.024 0.032 0.040 0.040 0.024 0.024 0.040 0.040 0.064 0.056 0.016 0.016 0.024 0.032 0.040 0.040 0.024 0.024 0.048 0.048 0.064 0.072 0.016 0.008 0.024 0.016 0.032 0.032 0.032 0.032 0.064 0.064 0.096 0.104 0 0 0.008 0.008 0.008 0.008 0.024 0.032 0.048 0.064 0.080 0.096 0.008 0.016 0.016 0.024 0.024 0.040 0.016 0.024 0.040 0.048 0.056 0.072 0.008 0.016 0.016 0.032 0.032 0.048 0.016 0.024 0.032 0.048 0.048 0.072 0.008 0.016 0.016 0.032 0.024 0.048 0.016 0.024 0.032 0.048 0.048 0.072 0.008 0.016 0.016 0.032 0.024 0.048 0.016 0.024 0.024 0.048 0.040 0.072 0.008 0.016 0.016 0.040 0.024 0.056 0.016 0.024 0.024 0.048 0.040 0.072 0.008 0.016 0.016 0.040 0.016 0.056 0.016 0.024 0.024 0.056 0.040 0.080 0 0.016 0.008 0.032 0.016 0.048 0.008 0.032 0.024 0.064 0.032 0.096 0.008 0.016 0.008 0.024 0.016 0.040 0.016 0.040 0.024 0.088 0.040 0.136 0 0.008 0 0.016 0 0.024 0.016 0.040 0.024 0.072 0.032 0.112 0 0.016 0.008 0.032 0.008 0.048 0.008 0.024 0.008 0.048 0.016 0.080h2.072c0.104 0 0.184-0.088 0.184-0.184v-2.064h-0.784v-0.984h0.784v-1.264c0-0.6-0.36-1.128-0.928-1.344l-1.888-0.736h-7.144v6.576zM21.024 16.136h6.472l-1.816-4.16c-0.2-0.464-0.664-0.76-1.184-0.76h-3.472v4.92zM8.248 26.208c1.144 0 2.080-0.904 2.080-2.024s-0.936-2.024-2.080-2.024c-0.032 0-0.072 0-0.104 0-0.96 0.048-1.744 0.728-1.928 1.616-0.008 0.032-0.016 0.064-0.024 0.104-0.008 0.064-0.016 0.128-0.016 0.2-0.008 0.032-0.008 0.072-0.008 0.104 0 1.12 0.936 2.024 2.080 2.024zM1.008 20.464h0.784v0.984h-0.784v2.192c0 0.032 0.024 0.056 0.048 0.056h4.144c0.008-0.032 0.008-0.056 0.016-0.080 0-0.016 0.008-0.032 0.008-0.048 0.008-0.040 0.016-0.072 0.032-0.112 0-0.008 0-0.016 0-0.024 0.016-0.048 0.032-0.088 0.040-0.136 0.008-0.016 0.016-0.032 0.016-0.040 0.008-0.032 0.024-0.064 0.032-0.096 0.008-0.016 0.016-0.032 0.024-0.048 0.008-0.024 0.016-0.056 0.032-0.080 0.008-0.016 0.016-0.040 0.024-0.056 0.008-0.024 0.016-0.048 0.032-0.072 0.008-0.016 0.016-0.040 0.024-0.056 0.016-0.024 0.024-0.048 0.040-0.072 0.008-0.016 0.016-0.032 0.032-0.048 0.008-0.024 0.024-0.048 0.040-0.072 0.008-0.016 0.016-0.032 0.032-0.048 0.008-0.024 0.024-0.048 0.040-0.072 0.016-0.016 0.024-0.032 0.032-0.048 0.016-0.024 0.040-0.048 0.056-0.072 0.008-0.016 0.016-0.024 0.032-0.040 0.024-0.032 0.048-0.064 0.072-0.088 0-0.008 0.008-0.016 0.008-0.016 0.032-0.040 0.064-0.072 0.096-0.104 0.008-0.016 0.024-0.024 0.032-0.032 0.024-0.024 0.040-0.048 0.064-0.072 0.016-0.008 0.024-0.024 0.040-0.040 0.024-0.016 0.040-0.032 0.064-0.056 0.016-0.008 0.032-0.024 0.040-0.040 0.024-0.016 0.048-0.032 0.064-0.048s0.032-0.024 0.048-0.040c0.024-0.016 0.040-0.032 0.064-0.048 0.016-0.016 0.032-0.024 0.048-0.032 0.024-0.016 0.048-0.032 0.072-0.048 0.016-0.016 0.032-0.024 0.048-0.032 0.024-0.016 0.048-0.032 0.072-0.048 0.016-0.008 0.032-0.024 0.048-0.032 0.024-0.016 0.048-0.032 0.080-0.040 0.016-0.008 0.024-0.016 0.040-0.024 0.040-0.024 0.080-0.040 0.12-0.064 0 0 0.008 0 0.008 0 0.040-0.024 0.088-0.040 0.128-0.056 0.016-0.008 0.032-0.016 0.048-0.024 0.024-0.008 0.056-0.016 0.088-0.032 0.016-0.008 0.032-0.008 0.056-0.016s0.048-0.024 0.080-0.032c0.016 0 0.040-0.008 0.056-0.016 0.032-0.008 0.056-0.016 0.080-0.024 0.024 0 0.040-0.008 0.064-0.008 0.024-0.008 0.056-0.016 0.080-0.024 0.024 0 0.040-0.008 0.064-0.008 0.024-0.008 0.056-0.016 0.080-0.016 0.024-0.008 0.040-0.008 0.064-0.008 0.032-0.008 0.056-0.008 0.088-0.016 0.024 0 0.040 0 0.056-0.008 0.040 0 0.072 0 0.104-0.008 0.016 0 0.032 0 0.048 0 0.048 0 0.104 0 0.152 0s0.104 0 0.152 0c0.016 0 0.032 0 0.048 0 0.032 0.008 0.064 0.008 0.104 0.008 0.016 0.008 0.032 0.008 0.056 0.008 0.032 0.008 0.056 0.008 0.088 0.016 0.024 0 0.040 0 0.064 0.008 0.024 0 0.056 0.008 0.080 0.016 0.024 0 0.040 0.008 0.064 0.008 0.024 0.008 0.056 0.016 0.080 0.024 0.024 0 0.040 0.008 0.064 0.008 0.024 0.008 0.056 0.016 0.080 0.024 0.016 0.008 0.040 0.016 0.056 0.016 0.032 0.008 0.056 0.024 0.088 0.032 0.016 0.008 0.032 0.008 0.048 0.016 0.032 0.016 0.064 0.024 0.096 0.032 0.008 0.008 0.024 0.016 0.040 0.024 0.040 0.016 0.088 0.032 0.128 0.056 0.008 0 0.008 0 0.008 0 0.040 0.024 0.080 0.040 0.12 0.064 0.016 0.008 0.024 0.016 0.040 0.024 0.032 0.008 0.056 0.024 0.080 0.040 0.016 0.008 0.032 0.024 0.048 0.032 0.024 0.016 0.048 0.032 0.072 0.048 0.016 0.008 0.032 0.016 0.056 0.032 0.016 0.016 0.040 0.032 0.064 0.048 0.016 0.008 0.032 0.016 0.048 0.032 0.024 0.016 0.040 0.032 0.064 0.048 0.016 0.016 0.032 0.024 0.048 0.040s0.040 0.032 0.064 0.048c0.008 0.016 0.024 0.032 0.040 0.040 0.024 0.024 0.040 0.040 0.064 0.056 0.016 0.016 0.024 0.032 0.040 0.040 0.024 0.024 0.048 0.048 0.064 0.072 0.016 0.008 0.024 0.016 0.032 0.032 0.032 0.032 0.064 0.064 0.096 0.104 0 0 0.008 0.008 0.008 0.008 0.024 0.032 0.048 0.064 0.072 0.096 0.016 0.016 0.024 0.024 0.032 0.040 0.016 0.024 0.040 0.048 0.056 0.072 0.008 0.016 0.016 0.032 0.032 0.048 0.016 0.024 0.032 0.048 0.040 0.072 0.016 0.016 0.024 0.032 0.032 0.048 0.016 0.024 0.032 0.048 0.040 0.072 0.016 0.016 0.024 0.032 0.032 0.048 0.016 0.024 0.024 0.048 0.040 0.072 0.008 0.016 0.016 0.040 0.024 0.056 0.016 0.024 0.024 0.048 0.032 0.072 0.008 0.016 0.016 0.040 0.024 0.056 0.016 0.024 0.024 0.056 0.040 0.080 0 0.016 0.008 0.032 0.016 0.048 0.008 0.032 0.024 0.064 0.032 0.096 0.008 0.016 0.008 0.024 0.016 0.040 0.008 0.040 0.024 0.088 0.040 0.136 0 0.008 0 0.016 0 0.024 0.016 0.032 0.024 0.072 0.032 0.112 0 0.016 0.008 0.032 0.008 0.048 0.008 0.024 0.008 0.048 0.016 0.080h8.712v-14.632c0-0.272 0.232-0.488 0.504-0.488h7.296c0.016 0 0.048 0 0.072-0.048 0.024-0.040 0.008-0.072 0-0.080l-1.576-2.312c-0.16-0.224-0.408-0.352-0.688-0.352h-13.168c-0.080 0-0.144 0.024-0.2 0.072l-0.832 0.816c-0.24 0.24-0.568 0.368-0.912 0.368h-8.68c-0.456 0-0.816 0.36-0.816 0.8v12.624z"></path>
<path d="M14.080 9.832h3.184c0.648 0 1.176 0.512 1.176 1.144v10.528c0 0.272-0.232 0.496-0.504 0.496h-4.52c-0.28 0-0.504-0.224-0.504-0.496v-10.528c0-0.632 0.52-1.144 1.168-1.144zM13.92 21.016h3.504v-5.792h-3.504v5.792zM13.92 14.24h3.504v-3.264c0-0.088-0.072-0.16-0.16-0.16h-3.184c-0.088 0-0.16 0.072-0.16 0.16v3.264z"></path>
</symbol>
<symbol id="icon-camper3" viewBox="0 0 32 32">
<path d="M1.824 6.056h8.68c0.080 0 0.144-0.032 0.2-0.080l0.832-0.816c0.24-0.232 0.568-0.36 0.912-0.36h13.168c0.616 0 1.184 0.296 1.52 0.792l1.584 2.312c0.224 0.328 0.24 0.744 0.056 1.096-0.192 0.344-0.56 0.56-0.968 0.56h-6.784v0.672h3.472c0.92 0 1.752 0.528 2.112 1.36l2.040 4.656 1.784 0.696c0.952 0.368 1.568 1.256 1.568 2.256v4.312c0 0.64-0.544 1.168-1.2 1.168h-2.072c-0.24 1.424-1.52 2.52-3.048 2.52s-2.8-1.096-3.048-2.52h-11.336c-0.248 1.424-1.52 2.52-3.048 2.52s-2.8-1.096-3.048-2.52h-4.144c-0.584 0-1.056-0.472-1.056-1.040v-15.8c0-0.984 0.816-1.784 1.824-1.784zM25.68 26.208c1.144 0 2.080-0.904 2.080-2.024s-0.936-2.024-2.080-2.024c-1.144 0-2.080 0.904-2.080 2.024s0.936 2.024 2.080 2.024zM21.024 23.696h1.608c0.008-0.032 0.016-0.056 0.016-0.080 0.008-0.016 0.008-0.032 0.008-0.048 0.008-0.040 0.024-0.072 0.032-0.112 0-0.008 0-0.016 0-0.024 0.016-0.048 0.032-0.096 0.040-0.136 0.008-0.016 0.016-0.024 0.016-0.040 0.008-0.032 0.024-0.064 0.032-0.096 0.008-0.016 0.016-0.032 0.024-0.048 0.008-0.024 0.016-0.056 0.032-0.080 0.008-0.016 0.016-0.040 0.024-0.056 0.008-0.024 0.016-0.048 0.032-0.072 0.008-0.016 0.016-0.040 0.024-0.056 0.016-0.024 0.024-0.048 0.040-0.072 0.008-0.016 0.016-0.032 0.032-0.048 0.008-0.024 0.024-0.048 0.040-0.072 0.008-0.016 0.016-0.032 0.032-0.048 0.016-0.024 0.024-0.048 0.040-0.072 0.016-0.016 0.024-0.032 0.032-0.048 0.016-0.024 0.040-0.048 0.056-0.072 0.008-0.016 0.016-0.024 0.032-0.040 0.024-0.032 0.048-0.064 0.072-0.096 0.008 0 0.008-0.008 0.016-0.008 0.024-0.040 0.056-0.072 0.088-0.104 0.008-0.016 0.024-0.024 0.032-0.032 0.024-0.024 0.040-0.048 0.064-0.072 0.016-0.008 0.032-0.024 0.040-0.040 0.024-0.016 0.040-0.032 0.064-0.056 0.016-0.008 0.032-0.024 0.040-0.040 0.024-0.016 0.048-0.032 0.064-0.048l0.048-0.040c0.024-0.016 0.040-0.032 0.064-0.048 0.016-0.016 0.032-0.024 0.048-0.032 0.024-0.016 0.048-0.032 0.072-0.048 0.016-0.016 0.032-0.024 0.048-0.032 0.024-0.016 0.048-0.032 0.072-0.048 0.016-0.008 0.032-0.024 0.048-0.032 0.024-0.016 0.056-0.032 0.080-0.040 0.016-0.008 0.024-0.016 0.040-0.024 0.040-0.024 0.080-0.040 0.12-0.064 0 0 0.008 0 0.008 0 0.040-0.024 0.088-0.040 0.128-0.056 0.016-0.008 0.032-0.016 0.048-0.024 0.024-0.008 0.056-0.016 0.088-0.032 0.016-0.008 0.032-0.008 0.056-0.016s0.048-0.024 0.080-0.032c0.016 0 0.040-0.008 0.056-0.016 0.032-0.008 0.056-0.016 0.080-0.024 0.024 0 0.040-0.008 0.064-0.008 0.024-0.008 0.056-0.016 0.080-0.024 0.024 0 0.040-0.008 0.064-0.008 0.024-0.008 0.056-0.016 0.088-0.016 0.016-0.008 0.040-0.008 0.056-0.008 0.032-0.008 0.064-0.008 0.088-0.016 0.024 0 0.040 0 0.064-0.008 0.032 0 0.064 0 0.096-0.008 0.016 0 0.032 0 0.048 0 0.048 0 0.104 0 0.152 0s0.104 0 0.152 0c0.016 0 0.032 0 0.048 0 0.032 0.008 0.072 0.008 0.104 0.008 0.016 0.008 0.040 0.008 0.056 0.008 0.032 0.008 0.056 0.008 0.088 0.016 0.024 0 0.040 0 0.064 0.008 0.024 0 0.056 0.008 0.080 0.016 0.024 0 0.040 0.008 0.064 0.008 0.024 0.008 0.056 0.016 0.080 0.024 0.024 0 0.040 0.008 0.064 0.008 0.024 0.008 0.056 0.016 0.080 0.024 0.016 0.008 0.040 0.016 0.056 0.016 0.032 0.008 0.056 0.024 0.088 0.032 0.016 0.008 0.032 0.008 0.048 0.016 0.032 0.016 0.064 0.024 0.096 0.032 0.008 0.008 0.024 0.016 0.040 0.024 0.040 0.016 0.088 0.032 0.128 0.056 0.008 0 0.008 0 0.008 0 0.040 0.024 0.080 0.040 0.12 0.064 0.016 0.008 0.024 0.016 0.040 0.024 0.032 0.008 0.056 0.024 0.080 0.040 0.016 0.008 0.032 0.024 0.048 0.032 0.024 0.016 0.048 0.032 0.072 0.048 0.016 0.008 0.040 0.016 0.056 0.032s0.040 0.032 0.064 0.048c0.016 0.008 0.032 0.016 0.048 0.032 0.024 0.016 0.040 0.032 0.064 0.048l0.048 0.040c0.024 0.016 0.040 0.032 0.064 0.048 0.016 0.016 0.024 0.032 0.040 0.040 0.024 0.024 0.040 0.040 0.064 0.056 0.016 0.016 0.024 0.032 0.040 0.040 0.024 0.024 0.048 0.048 0.064 0.072 0.016 0.008 0.024 0.016 0.032 0.032 0.032 0.032 0.064 0.064 0.096 0.104 0 0 0.008 0.008 0.008 0.008 0.024 0.032 0.048 0.064 0.080 0.096 0.008 0.016 0.016 0.024 0.024 0.040 0.016 0.024 0.040 0.048 0.056 0.072 0.008 0.016 0.016 0.032 0.032 0.048 0.016 0.024 0.032 0.048 0.048 0.072 0.008 0.016 0.016 0.032 0.024 0.048 0.016 0.024 0.032 0.048 0.048 0.072 0.008 0.016 0.016 0.032 0.024 0.048 0.016 0.024 0.024 0.048 0.040 0.072 0.008 0.016 0.016 0.040 0.024 0.056 0.016 0.024 0.024 0.048 0.040 0.072 0.008 0.016 0.016 0.040 0.016 0.056 0.016 0.024 0.024 0.056 0.040 0.080 0 0.016 0.008 0.032 0.016 0.048 0.008 0.032 0.024 0.064 0.032 0.096 0.008 0.016 0.008 0.024 0.016 0.040 0.016 0.040 0.024 0.088 0.040 0.136 0 0.008 0 0.016 0 0.024 0.016 0.040 0.024 0.072 0.032 0.112 0 0.016 0.008 0.032 0.008 0.048 0.008 0.024 0.008 0.048 0.016 0.080h2.072c0.104 0 0.184-0.088 0.184-0.184v-2.064h-0.784v-0.984h0.784v-1.264c0-0.6-0.36-1.128-0.928-1.344l-1.888-0.736h-7.144v6.576zM21.024 16.136h6.472l-1.816-4.16c-0.2-0.464-0.664-0.76-1.184-0.76h-3.472v4.92zM8.248 26.208c1.144 0 2.080-0.904 2.080-2.024s-0.936-2.024-2.080-2.024c-0.032 0-0.072 0-0.104 0-0.96 0.048-1.744 0.728-1.928 1.616-0.008 0.032-0.016 0.064-0.024 0.104-0.008 0.064-0.016 0.128-0.016 0.2-0.008 0.032-0.008 0.072-0.008 0.104 0 1.12 0.936 2.024 2.080 2.024zM1.008 20.464h0.784v0.984h-0.784v2.192c0 0.032 0.024 0.056 0.048 0.056h4.144c0.008-0.032 0.008-0.056 0.016-0.080 0-0.016 0.008-0.032 0.008-0.048 0.008-0.040 0.016-0.072 0.032-0.112 0-0.008 0-0.016 0-0.024 0.016-0.048 0.032-0.088 0.040-0.136 0.008-0.016 0.016-0.032 0.016-0.040 0.008-0.032 0.024-0.064 0.032-0.096 0.008-0.016 0.016-0.032 0.024-0.048 0.008-0.024 0.016-0.056 0.032-0.080 0.008-0.016 0.016-0.040 0.024-0.056 0.008-0.024 0.016-0.048 0.032-0.072 0.008-0.016 0.016-0.040 0.024-0.056 0.016-0.024 0.024-0.048 0.040-0.072 0.008-0.016 0.016-0.032 0.032-0.048 0.008-0.024 0.024-0.048 0.040-0.072 0.008-0.016 0.016-0.032 0.032-0.048 0.008-0.024 0.024-0.048 0.040-0.072 0.016-0.016 0.024-0.032 0.032-0.048 0.016-0.024 0.040-0.048 0.056-0.072 0.008-0.016 0.016-0.024 0.032-0.040 0.024-0.032 0.048-0.064 0.072-0.088 0-0.008 0.008-0.016 0.008-0.016 0.032-0.040 0.064-0.072 0.096-0.104 0.008-0.016 0.024-0.024 0.032-0.032 0.024-0.024 0.040-0.048 0.064-0.072 0.016-0.008 0.024-0.024 0.040-0.040 0.024-0.016 0.040-0.032 0.064-0.056 0.016-0.008 0.032-0.024 0.040-0.040 0.024-0.016 0.048-0.032 0.064-0.048s0.032-0.024 0.048-0.040c0.024-0.016 0.040-0.032 0.064-0.048 0.016-0.016 0.032-0.024 0.048-0.032 0.024-0.016 0.048-0.032 0.072-0.048 0.016-0.016 0.032-0.024 0.048-0.032 0.024-0.016 0.048-0.032 0.072-0.048 0.016-0.008 0.032-0.024 0.048-0.032 0.024-0.016 0.048-0.032 0.080-0.040 0.016-0.008 0.024-0.016 0.040-0.024 0.040-0.024 0.080-0.040 0.12-0.064 0 0 0.008 0 0.008 0 0.040-0.024 0.088-0.040 0.128-0.056 0.016-0.008 0.032-0.016 0.048-0.024 0.024-0.008 0.056-0.016 0.088-0.032 0.016-0.008 0.032-0.008 0.056-0.016s0.048-0.024 0.080-0.032c0.016 0 0.040-0.008 0.056-0.016 0.032-0.008 0.056-0.016 0.080-0.024 0.024 0 0.040-0.008 0.064-0.008 0.024-0.008 0.056-0.016 0.080-0.024 0.024 0 0.040-0.008 0.064-0.008 0.024-0.008 0.056-0.016 0.080-0.016 0.024-0.008 0.040-0.008 0.064-0.008 0.032-0.008 0.056-0.008 0.088-0.016 0.024 0 0.040 0 0.056-0.008 0.040 0 0.072 0 0.104-0.008 0.016 0 0.032 0 0.048 0 0.048 0 0.104 0 0.152 0s0.104 0 0.152 0c0.016 0 0.032 0 0.048 0 0.032 0.008 0.064 0.008 0.104 0.008 0.016 0.008 0.032 0.008 0.056 0.008 0.032 0.008 0.056 0.008 0.088 0.016 0.024 0 0.040 0 0.064 0.008 0.024 0 0.056 0.008 0.080 0.016 0.024 0 0.040 0.008 0.064 0.008 0.024 0.008 0.056 0.016 0.080 0.024 0.024 0 0.040 0.008 0.064 0.008 0.024 0.008 0.056 0.016 0.080 0.024 0.016 0.008 0.040 0.016 0.056 0.016 0.032 0.008 0.056 0.024 0.088 0.032 0.016 0.008 0.032 0.008 0.048 0.016 0.032 0.016 0.064 0.024 0.096 0.032 0.008 0.008 0.024 0.016 0.040 0.024 0.040 0.016 0.088 0.032 0.128 0.056 0.008 0 0.008 0 0.008 0 0.040 0.024 0.080 0.040 0.12 0.064 0.016 0.008 0.024 0.016 0.040 0.024 0.032 0.008 0.056 0.024 0.080 0.040 0.016 0.008 0.032 0.024 0.048 0.032 0.024 0.016 0.048 0.032 0.072 0.048 0.016 0.008 0.032 0.016 0.056 0.032 0.016 0.016 0.040 0.032 0.064 0.048 0.016 0.008 0.032 0.016 0.048 0.032 0.024 0.016 0.040 0.032 0.064 0.048 0.016 0.016 0.032 0.024 0.048 0.040s0.040 0.032 0.064 0.048c0.008 0.016 0.024 0.032 0.040 0.040 0.024 0.024 0.040 0.040 0.064 0.056 0.016 0.016 0.024 0.032 0.040 0.040 0.024 0.024 0.048 0.048 0.064 0.072 0.016 0.008 0.024 0.016 0.032 0.032 0.032 0.032 0.064 0.064 0.096 0.104 0 0 0.008 0.008 0.008 0.008 0.024 0.032 0.048 0.064 0.072 0.096 0.016 0.016 0.024 0.024 0.032 0.040 0.016 0.024 0.040 0.048 0.056 0.072 0.008 0.016 0.016 0.032 0.032 0.048 0.016 0.024 0.032 0.048 0.040 0.072 0.016 0.016 0.024 0.032 0.032 0.048 0.016 0.024 0.032 0.048 0.040 0.072 0.016 0.016 0.024 0.032 0.032 0.048 0.016 0.024 0.024 0.048 0.040 0.072 0.008 0.016 0.016 0.040 0.024 0.056 0.016 0.024 0.024 0.048 0.032 0.072 0.008 0.016 0.016 0.040 0.024 0.056 0.016 0.024 0.024 0.056 0.040 0.080 0 0.016 0.008 0.032 0.016 0.048 0.008 0.032 0.024 0.064 0.032 0.096 0.008 0.016 0.008 0.024 0.016 0.040 0.008 0.040 0.024 0.088 0.040 0.136 0 0.008 0 0.016 0 0.024 0.016 0.032 0.024 0.072 0.032 0.112 0 0.016 0.008 0.032 0.008 0.048 0.008 0.024 0.008 0.048 0.016 0.080h8.712v-14.632c0-0.272 0.232-0.488 0.504-0.488h7.296c0.016 0 0.048 0 0.072-0.048 0.024-0.040 0.008-0.072 0-0.080l-1.576-2.312c-0.16-0.224-0.408-0.352-0.688-0.352h-13.168c-0.080 0-0.144 0.024-0.2 0.072l-0.832 0.816c-0.24 0.24-0.568 0.368-0.912 0.368h-8.68c-0.456 0-0.816 0.36-0.816 0.8v12.624z"></path>
<path d="M3.872 9.832h6.168c0.712 0 1.296 0.568 1.296 1.264v2.872c0 0.696-0.584 1.264-1.296 1.264h-6.168c-0.712 0-1.296-0.568-1.296-1.264v-2.872c0-0.696 0.584-1.264 1.296-1.264zM3.584 13.968c0 0.152 0.128 0.272 0.288 0.272h6.168c0.16 0 0.288-0.12 0.288-0.272v-2.872c0-0.152-0.128-0.28-0.288-0.28h-6.168c-0.16 0-0.288 0.128-0.288 0.28v2.872z"></path>
</symbol>
<symbol id="icon-close" viewBox="0 0 32 32" fill="#101828" stroke="#101828">
<path stroke-width="2.4" stroke-miterlimit="4" stroke-linecap="round" stroke-linejoin="round" d="M22.4 6.4l-12.8 12.8"></path>
<path stroke-width="2.4" stroke-miterlimit="4" stroke-linecap="round" stroke-linejoin="round" d="M9.6 6.4l12.8 12.8"></path>
</symbol>
<symbol id="icon-engine" viewBox="0 0 32 32" fill="#101828" stroke="none">
<path d="M26.352 9.632l0.016-0.016-4.96-4.96-1.408 1.424 2.8 2.8c-1.248 0.48-2.144 1.68-2.144 3.12 0 0.432 0.096 0.864 0.256 1.264 0.176 0.416 0.416 0.768 0.72 1.088 0.624 0.624 1.472 0.976 2.368 0.976 0.48 0 0.912-0.112 1.328-0.288v9.616c0 0.352-0.144 0.688-0.4 0.944-0.24 0.256-0.576 0.4-0.928 0.4-0.368 0-0.704-0.144-0.944-0.4-0.256-0.256-0.4-0.592-0.4-0.944v-6c0-0.704-0.272-1.376-0.784-1.888-0.496-0.496-1.168-0.768-1.872-0.768h-1.344v-9.344c0-0.704-0.272-1.376-0.784-1.888-0.496-0.496-1.168-0.768-1.872-0.768h-8c-0.72 0-1.392 0.272-1.888 0.768-0.512 0.512-0.784 1.184-0.784 1.888v21.344h13.328v-10h2v6.656c0 0.88 0.352 1.728 0.976 2.352 0.624 0.64 1.472 0.992 2.368 0.992 0.432 0 0.864-0.096 1.264-0.256 0.416-0.176 0.768-0.416 1.088-0.736 0.304-0.304 0.56-0.672 0.72-1.072s0.256-0.832 0.256-1.28v-12.656c0-0.928-0.368-1.776-0.976-2.368zM16 18v7.328h-8v-9.328h8v2zM16 13.328h-8v-6.672h8v6.672zM24 13.328c-0.368 0-0.704-0.144-0.944-0.4-0.256-0.24-0.4-0.576-0.4-0.928 0-0.368 0.144-0.704 0.4-0.944 0.24-0.256 0.576-0.4 0.944-0.4 0.352 0 0.688 0.144 0.928 0.4 0.256 0.24 0.4 0.576 0.4 0.944 0 0.352-0.144 0.688-0.4 0.928-0.24 0.256-0.576 0.4-0.928 0.4z"></path>
</symbol>
<symbol id="icon-heart" viewBox="0 0 32 32">
<path stroke-width="3.0667" stroke-miterlimit="4" stroke-linecap="butt" stroke-linejoin="round" d="M25.4 4.547c-0.893-0.36-1.84-0.56-2.8-0.56-0.973 0-1.92 0.2-2.813 0.56-0.893 0.373-1.693 0.907-2.373 1.6l-1.413 1.413-1.413-1.413c-1.387-1.387-3.253-2.16-5.187-2.16-1.947 0-3.813 0.773-5.187 2.16-1.387 1.373-2.16 3.24-2.16 5.187 0 1.933 0.773 3.8 2.16 5.187l11.787 11.787 11.787-11.787c0.68-0.693 1.213-1.493 1.587-2.387 0.36-0.893 0.56-1.84 0.56-2.8 0-0.973-0.2-1.92-0.56-2.813-0.373-0.893-0.907-1.693-1.587-2.373-0.693-0.693-1.493-1.227-2.387-1.6z"></path>
</symbol>
<symbol id="icon-kitchen" viewBox="0 0 32 32">
<path stroke-width="2.4" stroke-miterlimit="4" stroke-linecap="butt" stroke-linejoin="round" d="M25.328 20h-6.672c-0.032-4.912 0.24-9.888 6.672-16v24h-1.344v-4M10.656 5.328v22.672M6.656 5.328v4c0 1.056 0.416 2.080 1.168 2.832 0.752 0.736 1.776 1.168 2.832 1.168s2.080-0.432 2.832-1.168c0.752-0.752 1.168-1.776 1.168-2.832v-4"></path>
</symbol>
<symbol id="icon-map-pin" viewBox="0 0 32 32">
<path stroke-width="2.6" stroke-miterlimit="4" stroke-linecap="butt" stroke-linejoin="round" d="M16 30.66c0 0-12-8-12-17.34 0-3.18 1.26-6.24 3.5-8.48 2.26-2.26 5.3-3.52 8.5-3.52 3.18 0 6.22 1.26 8.48 3.52 2.24 2.24 3.52 5.3 3.52 8.48 0 9.34-12 17.34-12 17.34z"></path>
<path stroke-width="2.6" stroke-miterlimit="4" stroke-linecap="butt" stroke-linejoin="round" d="M16 17.32c-2.22 0-4-1.78-4-4 0-2.2 1.78-4 4-4 2.2 0 4 1.8 4 4 0 2.22-1.8 4-4 4z"></path>
</symbol>
<symbol id="icon-shower" viewBox="0 0 31 32">
<path stroke-width="2.6667" stroke-miterlimit="4" stroke-linecap="butt" stroke-linejoin="round" d="M0.44 1.107l4.44 4.44M17.333 5.547c-1.667-1.627-3.893-2.52-6.213-2.507-2.32 0-4.533 0.933-6.173 2.573s-2.573 3.853-2.573 6.173c-0.013 2.32 0.88 4.547 2.507 6.213M20 2.88l-17.787 17.787M18.213 24.213v0.027M11.107 22.44v0.013M16.44 17.107v0.013M21.773 11.773v0.013M12.88 29.547v0.027M23.547 18.88v0.027M28.88 13.547v0.027"></path>
</symbol>
<symbol id="icon-star" viewBox="0 0 32 32">
<path d="M15.1 1.66l-3.78 7.16c-0.14 0.28-0.4 0.46-0.7 0.52l-7.98 1.38c-0.8 0.14-1.1 1.1-0.54 1.68l5.64 5.8c0.22 0.24 0.32 0.54 0.26 0.84l-1.14 8.020c-0.12 0.8 0.7 1.4 1.42 1.040l7.26-3.58c0.28-0.12 0.62-0.12 0.9 0l7.26 3.58c0.72 0.36 1.54-0.24 1.42-1.040l-1.14-8.020c-0.060-0.3 0.040-0.6 0.26-0.84l5.64-5.8c0.56-0.58 0.26-1.54-0.54-1.68l-7.98-1.38c-0.3-0.060-0.56-0.24-0.7-0.52l-3.78-7.16c-0.38-0.7-1.4-0.7-1.78 0z"></path>
<path d="M11.32 8.82l3.78-7.16c0.38-0.7 1.4-0.7 1.78 0l3.78 7.16c0.14 0.28 0.4 0.46 0.7 0.52l7.98 1.38c0.8 0.14 1.1 1.1 0.54 1.68l-5.64 5.8c-0.22 0.24-0.32 0.54-0.26 0.84l1.14 8.020c0.12 0.8-0.7 1.4-1.42 1.040l-7.26-3.58c-0.28-0.12-0.62-0.12-0.9 0l-7.26 3.58c-0.72 0.36-1.54-0.24-1.42-1.040l1.14-8.020c0.060-0.3-0.040-0.6-0.26-0.84l-5.64-5.8c-0.56-0.58-0.26-1.54 0.54-1.68l7.98-1.38c0.3-0.060 0.56-0.24 0.7-0.52zM13.46 9.94c-0.5 0.94-1.4 1.58-2.44 1.76l-5.36 0.94 3.8 3.9c0.74 0.76 1.080 1.8 0.92 2.84l-0.78 5.4 4.9-2.4c0.94-0.48 2.040-0.48 3 0l4.88 2.4-0.78-5.4c-0.16-1.040 0.18-2.080 0.92-2.84l3.8-3.9-5.36-0.94c-1.040-0.18-1.94-0.82-2.44-1.76l-2.52-4.8-2.54 4.8z"></path>
</symbol>
<symbol id="icon-transm" viewBox="0 0 32 32">
<path stroke-width="2.4" stroke-miterlimit="4" stroke-linecap="round" stroke-linejoin="round" d="M22.656 28h1.344c0.704 0 1.376-0.288 1.872-0.784 0.512-0.512 0.784-1.184 0.784-1.888s-0.272-1.392-0.784-1.888c-0.496-0.496-1.168-0.784-1.872-0.784h-1.344v5.344zM22.656 14.656h2c0.528 0 1.040-0.208 1.424-0.576 0.368-0.384 0.576-0.896 0.576-1.424s-0.208-1.040-0.576-1.408c-0.384-0.384-0.896-0.592-1.424-0.592h-2v6.672M4.768 8.544c0.512 0.496 1.184 0.784 1.888 0.784s1.392-0.288 1.888-0.784c0.496-0.496 0.784-1.184 0.784-1.888s-0.288-1.376-0.784-1.888c-0.496-0.496-1.184-0.768-1.888-0.768s-1.376 0.272-1.888 0.768c-0.496 0.512-0.768 1.184-0.768 1.888s0.272 1.392 0.768 1.888z"></path>
<path stroke-width="2.4" stroke-miterlimit="4" stroke-linecap="butt" stroke-linejoin="round" d="M6.656 9.328v4c0 0.352 0.144 0.688 0.4 0.944 0.24 0.24 0.576 0.384 0.944 0.384h9.328M12 14.656v9.344c0 0.352 0.128 0.688 0.384 0.928 0.256 0.256 0.592 0.4 0.944 0.4h4"></path>
</symbol>
<symbol id="icon-tv" viewBox="0 0 32 32">
<path stroke-width="1.8" stroke-miterlimit="4" stroke-linecap="butt" stroke-linejoin="round" d="M8 26c-2.22 0-4-1.79-4-4v-10c0-2.22 1.78-4 4-4h16c2.21 0 4 1.78 4 4v10c0 2.21-1.79 4-4 4h-16z"></path>
<path stroke-width="1.8" stroke-miterlimit="4" stroke-linecap="round" stroke-linejoin="round" d="M12 30h8"></path>
<path stroke-width="1.8" stroke-miterlimit="4" stroke-linecap="round" stroke-linejoin="round" d="M16 8l6-6"></path>
<path stroke-width="1.8" stroke-miterlimit="4" stroke-linecap="round" stroke-linejoin="round" d="M16 8l-6-6"></path>
</symbol>
<symbol id="icon-users" viewBox="0 0 32 32" fill="#101828"  stroke="none">
<path d="M9.056 24.128h-4.4c-0.256 0-0.4-0.128-0.528-0.272-0.128-0.128-0.272-0.4-0.128-0.656 0.8-2.272 2.8-3.6 5.056-3.6 2.8 0 5.072-2.4 5.072-5.2s-2.272-5.472-5.072-5.472c-2.8 0-5.056 2.4-5.056 5.328 0 1.344 0.528 2.672 1.328 3.6-1.728 0.944-3.072 2.4-3.872 4.4-0.256 0.944-0.128 2.144 0.544 3.072 0.656 0.928 1.6 1.472 2.656 1.472h4.4c0.8 0 1.344-0.544 1.344-1.344s-0.544-1.328-1.344-1.328zM6.656 14.256c0-1.456 1.072-2.528 2.4-2.528 1.344 0 2.4 1.2 2.4 2.528 0 1.472-1.056 2.544-2.4 2.544-1.328 0-2.4-1.2-2.4-2.544z"></path>
<path d="M30.528 21.456c-0.928-2.528-2.8-4.4-4.928-5.456 1.2-1.072 1.856-2.672 1.856-4.544 0-3.456-2.656-6.256-5.856-6.256s-5.872 2.8-5.872 6.256c0 1.744 0.672 3.344 1.872 4.544-2.144 1.056-4 2.928-4.944 5.456-0.656 1.2-0.4 2.544 0.272 3.6 0.672 1.072 1.872 1.6 3.072 1.6h11.056c1.2 0 2.4-0.656 3.072-1.6 0.8-1.056 0.928-2.4 0.4-3.6zM18.256 11.6c0-2 1.472-3.6 3.2-3.6 1.744 0 3.2 1.6 3.2 3.6s-1.456 3.6-3.2 3.6c-1.728 0-3.2-1.744-3.2-3.6zM27.856 23.6c-0.128 0.128-0.4 0.528-0.8 0.528h-11.056c-0.544 0-0.8-0.4-0.8-0.528-0.144-0.144-0.4-0.672-0.144-1.2 1.072-2.8 3.744-4.672 6.544-4.672s5.456 1.872 6.528 4.672c0.128 0.528-0.128 1.056-0.272 1.2z"></path>
</symbol>
<symbol id="icon-quality" viewBox="0 0 24 24">
<path d="M14.986 15.424l0.75 5.652-3.221-1.933c-0.311-0.184-0.703-0.196-1.029 0l-3.221 1.933 0.751-5.651c0.921 0.371 1.929 0.575 2.984 0.575s2.063-0.205 2.986-0.576zM15.332 12.991c-0.058 0.030-0.113 0.065-0.163 0.105-0.92 0.573-2.005 0.904-3.169 0.904-1.657 0-3.156-0.67-4.243-1.757s-1.757-2.586-1.757-4.243 0.67-3.156 1.757-4.243 2.586-1.757 4.243-1.757 3.156 0.67 4.243 1.757 1.757 2.586 1.757 4.243-0.67 3.156-1.757 4.243c-0.278 0.278-0.583 0.529-0.911 0.748zM7.14 14.355l-1.131 8.513c-0.073 0.547 0.312 1.050 0.86 1.123 0.234 0.031 0.461-0.022 0.646-0.134l4.485-2.691 4.486 2.691c0.474 0.284 1.088 0.131 1.372-0.343 0.122-0.203 0.163-0.431 0.134-0.646l-1.13-8.515c0.28-0.215 0.546-0.448 0.795-0.697 1.446-1.446 2.343-3.447 2.343-5.656s-0.897-4.21-2.343-5.657-3.448-2.343-5.657-2.343-4.21 0.897-5.657 2.343-2.343 3.448-2.343 5.657 0.897 4.21 2.343 5.657c0.25 0.25 0.516 0.483 0.796 0.698z"></path>
</symbol>
<symbol id="icon-variety" viewBox="0 0 20 20">
<path d="M0 0h9v9h-9v-9zM2 2v5h5v-5h-5zM0 11h9v9h-9v-9zM2 13v5h5v-5h-5zM11 0h9v9h-9v-9zM13 2v5h5v-5h-5zM11 11h9v9h-9v-9zM13 13v5h5v-5h-5z"></path>
</symbol>

<symbol id="icon-support" viewBox="0 0 24 24">
<path d="M21 12.234q0-2.063-0.727-3.75t-1.992-2.93-2.883-1.898-3.398-0.656-3.375 0.656-2.883 1.875-2.016 2.93-0.727 3.82q-0.469 0.234-0.727 0.703t-0.258 1.031v1.969q0 0.844 0.586 1.43t1.383 0.586h1.031v-6.094q0-1.453 0.539-2.719t1.5-2.227 2.227-1.5 2.719-0.539 2.719 0.539 2.227 1.5 1.5 2.227 0.539 2.719v7.078h-7.969v2.016h7.969q0.844 0 1.43-0.586t0.586-1.43v-1.219q0.422-0.234 0.703-0.656t0.281-0.984v-2.297q0-0.516-0.281-0.938t-0.703-0.656zM8.016 12.984q0-0.422 0.281-0.703t0.703-0.281 0.703 0.281 0.281 0.703-0.281 0.727-0.703 0.305-0.703-0.305-0.281-0.727zM14.016 12.984q0-0.422 0.281-0.703t0.703-0.281 0.703 0.281 0.281 0.703-0.281 0.727-0.703 0.305-0.703-0.305-0.281-0.727zM18 11.016q-0.234-1.406-1.078-2.555t-2.109-1.805-2.766-0.656q-1.125 0-2.25 0.445t-2.016 1.289-1.383 2.039-0.398 2.695q1.875-0.797 3.188-2.344t1.688-3.563q0.656 1.313 1.734 2.32t2.461 1.57 2.93 0.563z"></path>
</symbol>
<symbol id="icon-calendarH" viewBox="0 0 20 20">
<path d="M1 4c0-1.1 0.9-2 2-2h14c1.105 0 2 0.895 2 2v0 14c0 1.105-0.895 2-2 2v0h-14c-1.105 0-2-0.895-2-2v0-14zM3 6v12h14v-12h-14zM5 0h2v2h-2v-2zM13 0h2v2h-2v-2zM5 9h2v2h-2v-2zM5 13h2v2h-2v-2zM9 9h2v2h-2v-2zM9 13h2v2h-2v-2zM13 9h2v2h-2v-2zM13 13h2v2h-2v-2z"></path>
</symbol>
<symbol id="icon-CD" viewBox="0 0 32 32">
<path stroke-width="2.4" stroke-miterlimit="4" stroke-linecap="butt" stroke-linejoin="miter" d="M16 28c-6.64 0-12-5.376-12-12 0-6.64 5.36-12 12-12 6.624 0 12 5.36 12 12 0 6.624-5.376 12-12 12z"></path>
<path stroke-width="2.4" stroke-miterlimit="4" stroke-linecap="round" stroke-linejoin="miter" d="M8.656 16c0-4.064 3.28-7.344 7.344-7.344"></path>
<path stroke-width="2.4" stroke-miterlimit="4" stroke-linecap="butt" stroke-linejoin="miter" d="M16 19.328c-1.856 0-3.344-1.488-3.344-3.328 0-1.856 1.488-3.344 3.344-3.344 1.84 0 3.328 1.488 3.328 3.344 0 1.84-1.488 3.328-3.328 3.328z"></path>
</symbol>
<symbol id="icon-conditioner" viewBox="0 0 32 32">
<path stroke-width="2.2857" stroke-miterlimit="4" stroke-linecap="butt" stroke-linejoin="round" d="M3.261 1.082c-0.579 0-1.128 0.229-1.539 0.64s-0.64 0.96-0.64 1.539v10.88c0 0.579 0.229 1.128 0.64 1.539s0.96 0.64 1.539 0.64h23.939c0.579 0 1.128-0.229 1.539-0.64s0.64-0.96 0.64-1.539v-10.88c0-0.579-0.229-1.128-0.64-1.539s-0.96-0.64-1.539-0.64h-23.939z"></path>
<path stroke-width="2.2857" stroke-miterlimit="4" stroke-linecap="butt" stroke-linejoin="round" d="M23.939 16.32v-4.358c0-0.579-0.229-1.128-0.64-1.539s-0.96-0.64-1.539-0.64h-13.059c-0.579 0-1.128 0.229-1.539 0.64s-0.64 0.96-0.64 1.539v4.358M5.44 27.2h0.213c0.808 0 1.585-0.32 2.149-0.884 0.579-0.579 0.899-1.356 0.899-2.164v-2.392M25.021 27.2h-0.213c-0.808 0-1.585-0.32-2.149-0.884-0.579-0.579-0.899-1.356-0.899-2.164v-2.392M15.238 29.379v-7.619"></path>
</symbol>
<symbol id="icon-freezer" viewBox="0 0 32 32">
<path stroke-width="2.0800" stroke-miterlimit="4" stroke-linecap="butt" stroke-linejoin="round" d="M23.392 2.992c1.104 0 2 0.896 2 2v20.384c0 1.104-0.896 2-2 2h-14.8c-1.104 0-2-0.896-2-2v-20.384c0-1.104 0.896-2 2-2h14.8z"></path>
<path stroke-width="2.0800" stroke-miterlimit="4" stroke-linecap="butt" stroke-linejoin="round" d="M6.592 13.12h18.8M10.304 10.56v-4.048M10.304 19.44v-4.048M8.416 27.376v0.704c0 0.24 0.096 0.464 0.272 0.64 0.16 0.176 0.4 0.272 0.64 0.272h1.648c0.24 0 0.464-0.096 0.64-0.272 0.176-0.16 0.272-0.4 0.272-0.64v-0.704M20.096 27.376v0.704c0 0.24 0.096 0.48 0.256 0.64 0.176 0.176 0.416 0.272 0.656 0.272h1.648c0.24 0 0.48-0.096 0.656-0.272 0.16-0.16 0.256-0.4 0.256-0.64v-0.704"></path>
</symbol>
<symbol id="icon-gas" viewBox="0 0 32 32" fill="#101828" stroke="transparent">
<path d="M25.056 13.984c-0.368-0.448-0.8-0.848-1.216-1.232-1.072-0.912-2.288-1.568-3.312-2.512-2.384-2.208-2.912-5.856-1.392-8.64-1.52 0.336-2.848 1.12-3.984 1.984-4.144 3.152-5.776 8.688-3.824 13.456 0.064 0.144 0.128 0.304 0.128 0.496 0 0.336-0.24 0.64-0.56 0.752-0.368 0.16-0.752 0.064-1.056-0.176-0.096-0.080-0.176-0.16-0.224-0.256-1.808-2.16-2.096-5.264-0.88-7.744-2.672 2.064-4.128 5.536-3.92 8.816 0.096 0.752 0.192 1.504 0.464 2.256 0.224 0.912 0.656 1.824 1.136 2.624 1.728 2.608 4.72 4.48 7.936 4.864 3.424 0.4 7.088-0.176 9.712-2.416 2.912-2.512 3.936-6.528 2.432-9.968l-0.208-0.4c-0.336-0.688-1.232-1.904-1.232-1.904zM20.016 23.504c-0.448 0.368-1.184 0.752-1.76 0.912-1.792 0.592-3.584-0.24-4.64-1.248 1.904-0.416 3.040-1.744 3.376-3.088 0.272-1.216-0.24-2.208-0.448-3.376-0.192-1.12-0.16-2.064 0.272-3.12 0.304 0.576 0.624 1.152 1.008 1.616 1.232 1.504 3.168 2.176 3.584 4.224 0.064 0.208 0.096 0.416 0.096 0.656 0.048 1.232-0.528 2.592-1.488 3.424z"></path>
</symbol>
<symbol id="icon-microwave" viewBox="0 0 32 32">
<path stroke-width="2.24" stroke-miterlimit="4" stroke-linecap="butt" stroke-linejoin="round" d="M2.272 5.712c-0.304 0-0.592 0.112-0.8 0.336-0.224 0.208-0.336 0.496-0.336 0.8v18.288c0 0.304 0.112 0.592 0.336 0.8 0.208 0.224 0.496 0.336 0.8 0.336h27.44c0.304 0 0.592-0.112 0.8-0.336 0.224-0.208 0.336-0.496 0.336-0.8v-18.288c0-0.304-0.112-0.592-0.336-0.8-0.208-0.224-0.496-0.336-0.8-0.336h-27.44z"></path>
<path stroke-width="2.24" stroke-miterlimit="4" stroke-linecap="butt" stroke-linejoin="round" d="M6.848 10.272c-0.304 0-0.592 0.128-0.8 0.336-0.224 0.224-0.336 0.512-0.336 0.816v9.136c0 0.304 0.112 0.592 0.336 0.816 0.208 0.208 0.496 0.336 0.8 0.336h12.576c0.304 0 0.592-0.128 0.8-0.336 0.224-0.224 0.336-0.512 0.336-0.816v-9.136c0-0.304-0.112-0.592-0.336-0.816-0.208-0.208-0.496-0.336-0.8-0.336h-12.576zM25.136 11.424h1.136M25.136 16h1.136"></path>
</symbol>
<symbol id="icon-radio" viewBox="0 0 32 32">
<path stroke-width="2.0800" stroke-miterlimit="4" stroke-linecap="butt" stroke-linejoin="miter" d="M4.224 9.552c1.552-1.552 4.080-1.552 9.104-1.552h5.328c5.024 0 7.552 0 9.104 1.552 1.568 1.568 1.568 4.080 1.568 9.104s0 7.552-1.568 9.104c-1.552 1.568-4.080 1.568-9.104 1.568h-5.328c-5.024 0-7.552 0-9.104-1.568-1.568-1.552-1.568-4.080-1.568-9.104s0-7.536 1.568-9.104z"></path>
<path stroke-width="2.0800" stroke-miterlimit="4" stroke-linecap="butt" stroke-linejoin="miter" d="M7.44 12.768c0.496-0.496 1.184-0.768 1.888-0.768h13.328c0.704 0 1.392 0.272 1.888 0.768 0.496 0.512 0.784 1.184 0.784 1.888s-0.288 1.392-0.784 1.888c-0.496 0.496-1.184 0.784-1.888 0.784h-13.328c-0.704 0-1.392-0.288-1.888-0.784s-0.784-1.184-0.784-1.888c0-0.704 0.288-1.376 0.784-1.888zM11.408 24.080c-0.384 0.368-0.88 0.576-1.408 0.576-0.544 0-1.040-0.208-1.424-0.576-0.368-0.384-0.576-0.896-0.576-1.424s0.208-1.040 0.576-1.408c0.384-0.384 0.88-0.592 1.424-0.592 0.528 0 1.024 0.208 1.408 0.592 0.368 0.368 0.592 0.88 0.592 1.408s-0.224 1.040-0.592 1.424z"></path>
<path stroke-width="2.0800" stroke-miterlimit="4" stroke-linecap="butt" stroke-linejoin="miter" d="M20 15.328v2M17.328 22.656h6.672M8.656 8l11.344-5.344"></path>
</symbol>
<symbol id="icon-toilet" viewBox="0 0 32 32" fill="#101828" stroke="transparent">
<path d="M24 4c1.936 0 3.264 1.632 4.032 3.312 0.768 1.648 1.232 3.808 1.28 6.144l0.016 0.544v12.656c0 0.176-0.032 0.368-0.112 0.528-0.064 0.16-0.176 0.32-0.304 0.432-0.128 0.128-0.272 0.224-0.448 0.288-0.16 0.064-0.352 0.096-0.528 0.096l-0.16-0.032-3.776-0.624-3.792 0.624c-0.16 0.032-0.32 0.032-0.48 0l-0.16-0.048-3.568-1.184-3.584 1.184c-0.192 0.064-0.384 0.080-0.592 0.064-0.192-0.032-0.384-0.096-0.544-0.192-0.176-0.112-0.304-0.256-0.416-0.416-0.112-0.176-0.176-0.368-0.192-0.56l-0.016-0.16v-3.904c-0.704 0.736-1.584 1.248-2.656 1.248-1.952 0-3.28-1.648-4.048-3.328-0.816-1.776-1.296-4.144-1.296-6.672 0-2.544 0.48-4.912 1.296-6.688 0.736-1.6 1.984-3.168 3.776-3.312h16.272zM24 6.656h-12.304c0.128 0.208 0.24 0.432 0.336 0.656 0.816 1.776 1.296 4.144 1.296 6.688v10.816l2.24-0.752c0.272-0.096 0.576-0.096 0.848 0l3.68 1.232 3.68-0.624c0.144-0.016 0.288-0.016 0.432 0l2.448 0.416v-11.088c0-2.256-0.416-4.224-1.040-5.584-0.688-1.472-1.36-1.76-1.616-1.76zM8 6.656c-0.272 0-0.944 0.288-1.632 1.76-0.624 1.36-1.040 3.328-1.040 5.584 0 2.24 0.416 4.208 1.040 5.568 0.688 1.472 1.36 1.76 1.632 1.76 0.256 0 0.928-0.288 1.616-1.76 0.624-1.36 1.040-3.328 1.040-5.568 0-2.256-0.416-4.224-1.040-5.584-0.688-1.472-1.36-1.76-1.616-1.76zM8 11.328c0.736 0 1.328 1.184 1.328 2.672 0 1.472-0.592 2.656-1.328 2.656s-1.344-1.184-1.344-2.656c0-1.488 0.608-2.672 1.344-2.672z"></path>
</symbol>
<symbol id="icon-water" viewBox="0 0 32 32">
<path stroke-width="2.4" stroke-miterlimit="4" stroke-linecap="butt" stroke-linejoin="miter" d="M16 28.992c-5.536 0-9.008-3.472-9.008-8.992 0-5.936 6.448-13.936 8.432-16.256 0.064-0.080 0.16-0.144 0.256-0.192s0.208-0.064 0.32-0.064c0.096 0 0.208 0.016 0.304 0.064s0.192 0.112 0.256 0.192c1.984 2.32 8.432 10.32 8.432 16.256 0 5.52-3.472 8.992-8.992 8.992z"></path>
<path stroke-width="2.4" stroke-miterlimit="4" stroke-linecap="round" stroke-linejoin="round" d="M21.488 20.496c0 1.184-0.464 2.336-1.312 3.184-0.848 0.832-1.984 1.312-3.184 1.312"></path>
</symbol>
<symbol id="icon-hob" viewBox="0 0 32 32">
<path stroke-width="2.4" stroke-miterlimit="4" stroke-linecap="butt" stroke-linejoin="miter" d="M28 6.656c0.352 0 0.688 0.144 0.928 0.4 0.256 0.24 0.4 0.576 0.4 0.944v17.328c0 0.352-0.144 0.688-0.4 0.944-0.24 0.24-0.576 0.384-0.928 0.384h-24c-0.368 0-0.704-0.144-0.944-0.384-0.256-0.256-0.4-0.592-0.4-0.944v-17.328c0-0.368 0.144-0.704 0.4-0.944 0.24-0.256 0.576-0.4 0.944-0.4h24zM12 6.656v20"></path>
<path stroke-width="2.4" stroke-miterlimit="4" stroke-linecap="butt" stroke-linejoin="round" d="M7.328 11.328v2.672M24.656 10.656l-8 11.344"></path>
<path d="M7.328 16.656c0.736 0 1.328 0.592 1.328 1.344 0 0.736-0.592 1.328-1.328 1.328s-1.328-0.592-1.328-1.328c0-0.752 0.592-1.344 1.328-1.344z"></path>
<path d="M7.328 20.656c0.736 0 1.328 0.592 1.328 1.344 0 0.736-0.592 1.328-1.328 1.328s-1.328-0.592-1.328-1.328c0-0.752 0.592-1.344 1.328-1.344z"></path>
</symbol>
<symbol id="icon-heart-footer" viewBox="0 0 37 32">
<path d="M27 0c-2.476 0-4.856 0.921-6.704 2.595-0.702 0.635-1.303 1.357-1.796 2.154-0.493-0.797-1.094-1.519-1.796-2.155-1.848-1.673-4.228-2.594-6.704-2.594-5.514 0-10 4.486-10 10 0 3.722 1.158 6.66 3.871 9.825 3.942 4.6 13.919 11.62 14.342 11.917 0.086 0.061 0.187 0.091 0.287 0.091s0.201-0.030 0.287-0.091c0.423-0.297 10.4-7.317 14.343-11.917 2.712-3.165 3.87-6.103 3.87-9.825 0-5.514-4.486-10-10-10zM32.371 19.175c-3.495 4.076-12.18 10.341-13.871 11.545-1.691-1.204-10.376-7.469-13.87-11.545-2.545-2.969-3.63-5.713-3.63-9.175 0-4.963 4.038-9 9-9 2.227 0 4.37 0.829 6.032 2.335 0.838 0.76 1.518 1.656 2.020 2.664 0.17 0.34 0.726 0.34 0.896 0 0.502-1.008 1.182-1.904 2.020-2.663 1.662-1.507 3.805-2.336 6.032-2.336 4.962 0 9 4.037 9 9 0 3.462-1.085 6.206-3.629 9.175z"></path>
</symbol>
<symbol id="icon-linkedin" viewBox="0 0 20 20">
<path d="M10 0.4c-5.302 0-9.6 4.298-9.6 9.6s4.298 9.6 9.6 9.6 9.6-4.298 9.6-9.6-4.298-9.6-9.6-9.6zM7.65 13.979h-1.944v-6.256h1.944v6.256zM6.666 6.955c-0.614 0-1.011-0.435-1.011-0.973 0-0.549 0.409-0.971 1.036-0.971s1.011 0.422 1.023 0.971c0 0.538-0.396 0.973-1.048 0.973zM14.75 13.979h-1.944v-3.467c0-0.807-0.282-1.355-0.985-1.355-0.537 0-0.856 0.371-0.997 0.728-0.052 0.127-0.065 0.307-0.065 0.486v3.607h-1.945v-4.26c0-0.781-0.025-1.434-0.051-1.996h1.689l0.089 0.869h0.039c0.256-0.408 0.883-1.010 1.932-1.010 1.279 0 2.238 0.857 2.238 2.699v3.699z"></path>
</symbol>
<symbol id="icon-github" viewBox="0 0 32 32">
<path d="M16 0.396c-8.84 0-16 7.164-16 16 0 7.071 4.584 13.067 10.94 15.18 0.8 0.151 1.093-0.344 1.093-0.769 0-0.38-0.013-1.387-0.020-2.72-4.451 0.965-5.389-2.147-5.389-2.147-0.728-1.847-1.78-2.34-1.78-2.34-1.449-0.992 0.112-0.972 0.112-0.972 1.607 0.112 2.451 1.648 2.451 1.648 1.427 2.447 3.745 1.74 4.66 1.331 0.144-1.035 0.556-1.74 1.013-2.14-3.553-0.4-7.288-1.776-7.288-7.907 0-1.747 0.62-3.173 1.647-4.293-0.18-0.404-0.72-2.031 0.14-4.235 0 0 1.34-0.429 4.4 1.64 1.28-0.356 2.64-0.532 4-0.54 1.36 0.008 2.72 0.184 4 0.54 3.040-2.069 4.38-1.64 4.38-1.64 0.86 2.204 0.32 3.831 0.16 4.235 1.020 1.12 1.64 2.547 1.64 4.293 0 6.147-3.74 7.5-7.3 7.893 0.56 0.48 1.080 1.461 1.080 2.96 0 2.141-0.020 3.861-0.020 4.381 0 0.42 0.28 0.92 1.1 0.76 6.401-2.099 10.981-8.099 10.981-15.159 0-8.836-7.164-16-16-16z"></path>
</symbol>
</defs>
</svg>
